<mxfile host="app.diagrams.net" agent="Mozilla/5.0 (Windows NT 10.0; Win64; x64) AppleWebKit/537.36 (KHTML, like Gecko) Chrome/129.0.0.0 Safari/537.36" version="24.8.1">
  <diagram name="Page-1" id="kotuXbQ_c9UI0_7d4dY3">
    <mxGraphModel dx="1050" dy="1630" grid="1" gridSize="10" guides="1" tooltips="1" connect="1" arrows="1" fold="1" page="1" pageScale="1" pageWidth="850" pageHeight="1100" math="0" shadow="0">
      <root>
        <mxCell id="0" />
        <mxCell id="1" parent="0" />
        <mxCell id="XTTdOz2v0rvTF1GuS7m1-1" value="df_train" style="swimlane;whiteSpace=wrap;html=1;" parent="1" vertex="1">
          <mxGeometry x="385" y="-1070" width="300" height="1800" as="geometry">
            <mxRectangle x="385" y="-1070" width="80" height="30" as="alternateBounds" />
          </mxGeometry>
        </mxCell>
        <mxCell id="XTTdOz2v0rvTF1GuS7m1-2" value="&lt;div&gt;&#39;SK_ID_CURR&#39;,&lt;/div&gt;&lt;div&gt;&amp;nbsp;&#39;TARGET&#39;,&lt;/div&gt;&lt;div&gt;&amp;nbsp;&#39;NAME_CONTRACT_TYPE&#39;,&lt;/div&gt;&lt;div&gt;&amp;nbsp;&#39;CODE_GENDER&#39;,&lt;/div&gt;&lt;div&gt;&amp;nbsp;&#39;FLAG_OWN_CAR&#39;,&lt;/div&gt;&lt;div&gt;&amp;nbsp;&#39;FLAG_OWN_REALTY&#39;,&lt;/div&gt;&lt;div&gt;&amp;nbsp;&#39;CNT_CHILDREN&#39;,&lt;/div&gt;&lt;div&gt;&amp;nbsp;&#39;AMT_INCOME_TOTAL&#39;,&lt;/div&gt;&lt;div&gt;&amp;nbsp;&#39;AMT_CREDIT&#39;,&lt;/div&gt;&lt;div&gt;&amp;nbsp;&#39;AMT_ANNUITY&#39;,&lt;/div&gt;&lt;div&gt;&amp;nbsp;&#39;AMT_GOODS_PRICE&#39;,&lt;/div&gt;&lt;div&gt;&amp;nbsp;&#39;NAME_TYPE_SUITE&#39;,&lt;/div&gt;&lt;div&gt;&amp;nbsp;&#39;NAME_INCOME_TYPE&#39;,&lt;/div&gt;&lt;div&gt;&amp;nbsp;&#39;NAME_EDUCATION_TYPE&#39;,&lt;/div&gt;&lt;div&gt;&amp;nbsp;&#39;NAME_FAMILY_STATUS&#39;,&lt;/div&gt;&lt;div&gt;&amp;nbsp;&#39;NAME_HOUSING_TYPE&#39;,&lt;/div&gt;&lt;div&gt;&amp;nbsp;&#39;REGION_POPULATION_RELATIVE&#39;,&lt;/div&gt;&lt;div&gt;&amp;nbsp;&#39;DAYS_BIRTH&#39;,&lt;/div&gt;&lt;div&gt;&amp;nbsp;&#39;DAYS_EMPLOYED&#39;,&lt;/div&gt;&lt;div&gt;&amp;nbsp;&#39;DAYS_REGISTRATION&#39;,&lt;/div&gt;&lt;div&gt;&amp;nbsp;&#39;DAYS_ID_PUBLISH&#39;,&lt;/div&gt;&lt;div&gt;&amp;nbsp;&#39;OWN_CAR_AGE&#39;,&lt;/div&gt;&lt;div&gt;&amp;nbsp;&#39;FLAG_MOBIL&#39;,&lt;/div&gt;&lt;div&gt;&amp;nbsp;&#39;FLAG_EMP_PHONE&#39;,&lt;/div&gt;&lt;div&gt;&amp;nbsp;&#39;FLAG_WORK_PHONE&#39;,&lt;/div&gt;&lt;div&gt;&amp;nbsp;&#39;FLAG_CONT_MOBILE&#39;,&lt;/div&gt;&lt;div&gt;&amp;nbsp;&#39;FLAG_PHONE&#39;,&lt;/div&gt;&lt;div&gt;&amp;nbsp;&#39;FLAG_EMAIL&#39;,&lt;/div&gt;&lt;div&gt;&amp;nbsp;&#39;OCCUPATION_TYPE&#39;,&lt;/div&gt;&lt;div&gt;&amp;nbsp;&#39;CNT_FAM_MEMBERS&#39;,&lt;/div&gt;&lt;div&gt;&amp;nbsp;&#39;REGION_RATING_CLIENT&#39;,&lt;/div&gt;&lt;div&gt;&amp;nbsp;&#39;REGION_RATING_CLIENT_W_CITY&#39;,&lt;/div&gt;&lt;div&gt;&amp;nbsp;&#39;WEEKDAY_APPR_PROCESS_START&#39;,&lt;/div&gt;&lt;div&gt;&amp;nbsp;&#39;HOUR_APPR_PROCESS_START&#39;,&lt;/div&gt;&lt;div&gt;&amp;nbsp;&#39;REG_REGION_NOT_LIVE_REGION&#39;,&lt;/div&gt;&lt;div&gt;&amp;nbsp;&#39;REG_REGION_NOT_WORK_REGION&#39;,&lt;/div&gt;&lt;div&gt;&amp;nbsp;&#39;LIVE_REGION_NOT_WORK_REGION&#39;,&lt;/div&gt;&lt;div&gt;&amp;nbsp;&#39;REG_CITY_NOT_LIVE_CITY&#39;,&lt;/div&gt;&lt;div&gt;&amp;nbsp;&#39;REG_CITY_NOT_WORK_CITY&#39;,&lt;/div&gt;&lt;div&gt;&amp;nbsp;&#39;LIVE_CITY_NOT_WORK_CITY&#39;,&lt;/div&gt;&lt;div&gt;&amp;nbsp;&#39;ORGANIZATION_TYPE&#39;,&lt;/div&gt;&lt;div&gt;&amp;nbsp;&#39;EXT_SOURCE_1&#39;,&lt;/div&gt;&lt;div&gt;&amp;nbsp;&#39;EXT_SOURCE_2&#39;,&lt;/div&gt;&lt;div&gt;&amp;nbsp;&#39;EXT_SOURCE_3&#39;,&lt;/div&gt;&lt;div&gt;&amp;nbsp;&#39;APARTMENTS_AVG&#39;,&lt;/div&gt;&lt;div&gt;&amp;nbsp;&#39;BASEMENTAREA_AVG&#39;,&lt;/div&gt;&lt;div&gt;&amp;nbsp;&#39;YEARS_BEGINEXPLUATATION_AVG&#39;,&lt;/div&gt;&lt;div&gt;&amp;nbsp;&#39;YEARS_BUILD_AVG&#39;,&lt;/div&gt;&lt;div&gt;&amp;nbsp;&#39;COMMONAREA_AVG&#39;,&lt;/div&gt;&lt;div&gt;&amp;nbsp;&#39;ELEVATORS_AVG&#39;,&lt;/div&gt;&lt;div&gt;&amp;nbsp;&#39;ENTRANCES_AVG&#39;,&lt;/div&gt;&lt;div&gt;&amp;nbsp;&#39;FLOORSMAX_AVG&#39;,&lt;/div&gt;&lt;div&gt;&amp;nbsp;&#39;FLOORSMIN_AVG&#39;,&lt;/div&gt;&lt;div&gt;&amp;nbsp;&#39;LANDAREA_AVG&#39;,&lt;/div&gt;&lt;div&gt;&amp;nbsp;&#39;LIVINGAPARTMENTS_AVG&#39;,&lt;/div&gt;&lt;div&gt;&amp;nbsp;&#39;LIVINGAREA_AVG&#39;,&lt;/div&gt;&lt;div&gt;&amp;nbsp;&#39;NONLIVINGAPARTMENTS_AVG&#39;,&lt;/div&gt;&lt;div&gt;&amp;nbsp;&#39;NONLIVINGAREA_AVG&#39;,&lt;/div&gt;&lt;div&gt;&amp;nbsp;&#39;APARTMENTS_MODE&#39;,&lt;/div&gt;&lt;div&gt;&amp;nbsp;&#39;BASEMENTAREA_MODE&#39;,&lt;/div&gt;&lt;div&gt;&amp;nbsp;&#39;YEARS_BEGINEXPLUATATION_MODE&#39;,&lt;/div&gt;&lt;div&gt;&amp;nbsp;&#39;YEARS_BUILD_MODE&#39;,&lt;/div&gt;&lt;div&gt;&amp;nbsp;&#39;COMMONAREA_MODE&#39;,&lt;/div&gt;&lt;div&gt;&amp;nbsp;&#39;ELEVATORS_MODE&#39;,&lt;/div&gt;&lt;div&gt;&amp;nbsp;&#39;ENTRANCES_MODE&#39;,&lt;/div&gt;&lt;div&gt;&amp;nbsp;&#39;FLOORSMAX_MODE&#39;,&lt;/div&gt;&lt;div&gt;&amp;nbsp;&#39;FLOORSMIN_MODE&#39;,&lt;/div&gt;&lt;div&gt;&amp;nbsp;&#39;LANDAREA_MODE&#39;,&lt;/div&gt;&lt;div&gt;&amp;nbsp;&#39;LIVINGAPARTMENTS_MODE&#39;,&lt;/div&gt;&lt;div&gt;&amp;nbsp;&#39;LIVINGAREA_MODE&#39;,&lt;/div&gt;&lt;div&gt;&amp;nbsp;&#39;NONLIVINGAPARTMENTS_MODE&#39;,&lt;/div&gt;&lt;div&gt;&amp;nbsp;&#39;NONLIVINGAREA_MODE&#39;,&lt;/div&gt;&lt;div&gt;&amp;nbsp;&#39;APARTMENTS_MEDI&#39;,&lt;/div&gt;&lt;div&gt;&amp;nbsp;&#39;BASEMENTAREA_MEDI&#39;,&lt;/div&gt;&lt;div&gt;&amp;nbsp;&#39;YEARS_BEGINEXPLUATATION_MEDI&#39;,&lt;/div&gt;&lt;div&gt;&amp;nbsp;&#39;YEARS_BUILD_MEDI&#39;,&lt;/div&gt;&lt;div&gt;&amp;nbsp;&#39;COMMONAREA_MEDI&#39;,&lt;/div&gt;&lt;div&gt;&amp;nbsp;&#39;ELEVATORS_MEDI&#39;,&lt;/div&gt;&lt;div&gt;&amp;nbsp;&#39;ENTRANCES_MEDI&#39;,&lt;/div&gt;&lt;div&gt;&amp;nbsp;&#39;FLOORSMAX_MEDI&#39;,&lt;/div&gt;&lt;div&gt;&amp;nbsp;&#39;FLOORSMIN_MEDI&#39;,&lt;/div&gt;&lt;div&gt;&amp;nbsp;&#39;LANDAREA_MEDI&#39;,&lt;/div&gt;&lt;div&gt;&amp;nbsp;&#39;LIVINGAPARTMENTS_MEDI&#39;,&lt;/div&gt;&lt;div&gt;&amp;nbsp;&#39;LIVINGAREA_MEDI&#39;,&lt;/div&gt;&lt;div&gt;&amp;nbsp;&#39;NONLIVINGAPARTMENTS_MEDI&#39;,&lt;/div&gt;&lt;div&gt;&amp;nbsp;&#39;NONLIVINGAREA_MEDI&#39;,&lt;/div&gt;&lt;div&gt;&amp;nbsp;&#39;FONDKAPREMONT_MODE&#39;,&lt;/div&gt;&lt;div&gt;&amp;nbsp;&#39;HOUSETYPE_MODE&#39;,&lt;/div&gt;&lt;div&gt;&amp;nbsp;&#39;TOTALAREA_MODE&#39;,&lt;/div&gt;&lt;div&gt;&amp;nbsp;&#39;WALLSMATERIAL_MODE&#39;,&lt;/div&gt;&lt;div&gt;&amp;nbsp;&#39;EMERGENCYSTATE_MODE&#39;,&lt;/div&gt;&lt;div&gt;&amp;nbsp;&#39;OBS_30_CNT_SOCIAL_CIRCLE&#39;,&lt;/div&gt;&lt;div&gt;&amp;nbsp;&#39;DEF_30_CNT_SOCIAL_CIRCLE&#39;,&lt;/div&gt;&lt;div&gt;&amp;nbsp;&#39;OBS_60_CNT_SOCIAL_CIRCLE&#39;,&lt;/div&gt;&lt;div&gt;&amp;nbsp;&#39;DEF_60_CNT_SOCIAL_CIRCLE&#39;,&lt;/div&gt;&lt;div&gt;&amp;nbsp;&#39;DAYS_LAST_PHONE_CHANGE&#39;,&lt;/div&gt;&lt;div&gt;&amp;nbsp;&#39;FLAG_DOCUMENT_2&#39;,&lt;/div&gt;&lt;div&gt;&amp;nbsp;&#39;FLAG_DOCUMENT_3&#39;,&lt;/div&gt;&lt;div&gt;&amp;nbsp;&#39;FLAG_DOCUMENT_4&#39;,&lt;/div&gt;&lt;div&gt;&amp;nbsp;&#39;FLAG_DOCUMENT_5&#39;,&lt;/div&gt;&lt;div&gt;&amp;nbsp;&#39;FLAG_DOCUMENT_6&#39;,&lt;/div&gt;&lt;div&gt;&amp;nbsp;&#39;FLAG_DOCUMENT_7&#39;,&lt;/div&gt;&lt;div&gt;&amp;nbsp;&#39;FLAG_DOCUMENT_8&#39;,&lt;/div&gt;&lt;div&gt;&amp;nbsp;&#39;FLAG_DOCUMENT_9&#39;,&lt;/div&gt;&lt;div&gt;&amp;nbsp;&#39;FLAG_DOCUMENT_10&#39;,&lt;/div&gt;&lt;div&gt;&amp;nbsp;&#39;FLAG_DOCUMENT_11&#39;,&lt;/div&gt;&lt;div&gt;&amp;nbsp;&#39;FLAG_DOCUMENT_12&#39;,&lt;/div&gt;&lt;div&gt;&amp;nbsp;&#39;FLAG_DOCUMENT_13&#39;,&lt;/div&gt;&lt;div&gt;&amp;nbsp;&#39;FLAG_DOCUMENT_14&#39;,&lt;/div&gt;&lt;div&gt;&amp;nbsp;&#39;FLAG_DOCUMENT_15&#39;,&lt;/div&gt;&lt;div&gt;&amp;nbsp;&#39;FLAG_DOCUMENT_16&#39;,&lt;/div&gt;&lt;div&gt;&amp;nbsp;&#39;FLAG_DOCUMENT_17&#39;,&lt;/div&gt;&lt;div&gt;&amp;nbsp;&#39;FLAG_DOCUMENT_18&#39;,&lt;/div&gt;&lt;div&gt;&amp;nbsp;&#39;FLAG_DOCUMENT_19&#39;,&lt;/div&gt;&lt;div&gt;&amp;nbsp;&#39;FLAG_DOCUMENT_20&#39;,&lt;/div&gt;&lt;div&gt;&amp;nbsp;&#39;FLAG_DOCUMENT_21&#39;,&lt;/div&gt;&lt;div&gt;&amp;nbsp;&#39;AMT_REQ_CREDIT_BUREAU_HOUR&#39;,&lt;/div&gt;&lt;div&gt;&amp;nbsp;&#39;AMT_REQ_CREDIT_BUREAU_DAY&#39;,&lt;/div&gt;&lt;div&gt;&amp;nbsp;&#39;AMT_REQ_CREDIT_BUREAU_WEEK&#39;,&lt;/div&gt;&lt;div&gt;&amp;nbsp;&#39;AMT_REQ_CREDIT_BUREAU_MON&#39;,&lt;/div&gt;&lt;div&gt;&amp;nbsp;&#39;AMT_REQ_CREDIT_BUREAU_QRT&#39;,&lt;/div&gt;&lt;div&gt;&amp;nbsp;&#39;AMT_REQ_CREDIT_BUREAU_YEAR&#39;&lt;/div&gt;" style="text;html=1;align=center;verticalAlign=middle;resizable=0;points=[];autosize=1;strokeColor=none;fillColor=none;" parent="XTTdOz2v0rvTF1GuS7m1-1" vertex="1">
          <mxGeometry x="30" y="20" width="250" height="1770" as="geometry" />
        </mxCell>
        <mxCell id="XTTdOz2v0rvTF1GuS7m1-3" value="df_bureau" style="swimlane;whiteSpace=wrap;html=1;" parent="1" vertex="1" collapsed="1">
          <mxGeometry x="110" y="-990" width="90" height="30" as="geometry">
            <mxRectangle x="110" y="-990" width="230" height="340" as="alternateBounds" />
          </mxGeometry>
        </mxCell>
        <mxCell id="XTTdOz2v0rvTF1GuS7m1-4" value="&lt;span style=&quot;font-family: Consolas, &amp;quot;Courier New&amp;quot;, monospace; font-size: 14px; text-align: start; white-space-collapse: preserve;&quot;&gt;&#39;SK_ID_CURR&#39;,&lt;br&gt;&lt;/span&gt;&lt;span style=&quot;font-family: Consolas, &amp;quot;Courier New&amp;quot;, monospace; font-size: 14px; text-align: start; white-space-collapse: preserve;&quot;&gt; &#39;SK_ID_BUREAU&#39;,&lt;br&gt;&lt;/span&gt;&lt;span style=&quot;font-family: Consolas, &amp;quot;Courier New&amp;quot;, monospace; font-size: 14px; text-align: start; white-space-collapse: preserve;&quot;&gt; &#39;CREDIT_ACTIVE&#39;,&lt;br&gt;&lt;/span&gt;&lt;span style=&quot;font-family: Consolas, &amp;quot;Courier New&amp;quot;, monospace; font-size: 14px; text-align: start; white-space-collapse: preserve;&quot;&gt; &#39;CREDIT_CURRENCY&#39;,&lt;br&gt;&lt;/span&gt;&lt;span style=&quot;font-family: Consolas, &amp;quot;Courier New&amp;quot;, monospace; font-size: 14px; text-align: start; white-space-collapse: preserve;&quot;&gt; &#39;DAYS_CREDIT&#39;,&lt;br&gt;&lt;/span&gt;&lt;span style=&quot;font-family: Consolas, &amp;quot;Courier New&amp;quot;, monospace; font-size: 14px; text-align: start; white-space-collapse: preserve;&quot;&gt; &#39;CREDIT_DAY_OVERDUE&#39;,&lt;br&gt;&lt;/span&gt;&lt;span style=&quot;font-family: Consolas, &amp;quot;Courier New&amp;quot;, monospace; font-size: 14px; text-align: start; white-space-collapse: preserve;&quot;&gt; &#39;DAYS_CREDIT_ENDDATE&#39;,&lt;br&gt;&lt;/span&gt;&lt;span style=&quot;font-family: Consolas, &amp;quot;Courier New&amp;quot;, monospace; font-size: 14px; text-align: start; white-space-collapse: preserve;&quot;&gt; &#39;DAYS_ENDDATE_FACT&#39;,&lt;br&gt;&lt;/span&gt;&lt;span style=&quot;font-family: Consolas, &amp;quot;Courier New&amp;quot;, monospace; font-size: 14px; text-align: start; white-space-collapse: preserve;&quot;&gt; &#39;AMT_CREDIT_MAX_OVERDUE&#39;,&lt;br&gt;&lt;/span&gt;&lt;span style=&quot;font-family: Consolas, &amp;quot;Courier New&amp;quot;, monospace; font-size: 14px; text-align: start; white-space-collapse: preserve;&quot;&gt; &#39;CNT_CREDIT_PROLONG&#39;,&lt;br&gt;&lt;/span&gt;&lt;span style=&quot;font-family: Consolas, &amp;quot;Courier New&amp;quot;, monospace; font-size: 14px; text-align: start; white-space-collapse: preserve;&quot;&gt; &#39;AMT_CREDIT_SUM&#39;,&lt;br&gt;&lt;/span&gt;&lt;span style=&quot;font-family: Consolas, &amp;quot;Courier New&amp;quot;, monospace; font-size: 14px; text-align: start; white-space-collapse: preserve;&quot;&gt; &#39;AMT_CREDIT_SUM_DEBT&#39;,&lt;br&gt;&lt;/span&gt;&lt;span style=&quot;font-family: Consolas, &amp;quot;Courier New&amp;quot;, monospace; font-size: 14px; text-align: start; white-space-collapse: preserve;&quot;&gt; &#39;AMT_CREDIT_SUM_LIMIT&#39;,&lt;br&gt;&lt;/span&gt;&lt;span style=&quot;font-family: Consolas, &amp;quot;Courier New&amp;quot;, monospace; font-size: 14px; text-align: start; white-space-collapse: preserve;&quot;&gt; &#39;AMT_CREDIT_SUM_OVERDUE&#39;,&lt;br&gt;&lt;/span&gt;&lt;span style=&quot;font-family: Consolas, &amp;quot;Courier New&amp;quot;, monospace; font-size: 14px; text-align: start; white-space-collapse: preserve;&quot;&gt; &#39;CREDIT_TYPE&#39;,&lt;br&gt;&lt;/span&gt;&lt;span style=&quot;font-family: Consolas, &amp;quot;Courier New&amp;quot;, monospace; font-size: 14px; text-align: start; white-space-collapse: preserve;&quot;&gt; &#39;DAYS_CREDIT_UPDATE&#39;,&lt;br&gt;&lt;/span&gt;&lt;span style=&quot;font-family: Consolas, &amp;quot;Courier New&amp;quot;, monospace; font-size: 14px; text-align: start; white-space-collapse: preserve;&quot;&gt; &#39;AMT_ANNUITY&#39;&lt;/span&gt;" style="text;html=1;align=center;verticalAlign=middle;resizable=0;points=[];autosize=1;strokeColor=none;fillColor=none;" parent="XTTdOz2v0rvTF1GuS7m1-3" vertex="1">
          <mxGeometry x="5" y="30" width="220" height="300" as="geometry" />
        </mxCell>
        <mxCell id="XTTdOz2v0rvTF1GuS7m1-5" value="df_bureau_balance" style="swimlane;whiteSpace=wrap;html=1;" parent="1" vertex="1" collapsed="1">
          <mxGeometry x="85" y="-840" width="140" height="30" as="geometry">
            <mxRectangle x="85" y="-840" width="160" height="100" as="alternateBounds" />
          </mxGeometry>
        </mxCell>
        <mxCell id="XTTdOz2v0rvTF1GuS7m1-6" value="&lt;span style=&quot;font-family: Consolas, &amp;quot;Courier New&amp;quot;, monospace; font-size: 14px; text-align: start; white-space-collapse: preserve;&quot;&gt;&#39;SK_ID_BUREAU&#39;, &lt;/span&gt;&lt;div&gt;&lt;span style=&quot;font-family: Consolas, &amp;quot;Courier New&amp;quot;, monospace; font-size: 14px; text-align: start; white-space-collapse: preserve;&quot;&gt;&#39;MONTHS_BALANCE&#39;, &lt;/span&gt;&lt;/div&gt;&lt;div&gt;&lt;span style=&quot;font-family: Consolas, &amp;quot;Courier New&amp;quot;, monospace; font-size: 14px; text-align: start; white-space-collapse: preserve;&quot;&gt;&#39;STATUS&#39;&lt;/span&gt;&lt;/div&gt;" style="text;html=1;align=center;verticalAlign=middle;resizable=0;points=[];autosize=1;strokeColor=none;fillColor=none;" parent="XTTdOz2v0rvTF1GuS7m1-5" vertex="1">
          <mxGeometry x="10" y="30" width="160" height="60" as="geometry" />
        </mxCell>
        <mxCell id="XTTdOz2v0rvTF1GuS7m1-7" value="df_prev_app" style="swimlane;whiteSpace=wrap;html=1;" parent="1" vertex="1" collapsed="1">
          <mxGeometry x="530" y="-1040" width="110" height="30" as="geometry">
            <mxRectangle x="530" y="-1040" width="260" height="590" as="alternateBounds" />
          </mxGeometry>
        </mxCell>
        <mxCell id="XTTdOz2v0rvTF1GuS7m1-9" value="&lt;div&gt;&#39;SK_ID_PREV&#39;,&lt;/div&gt;&lt;div&gt;&amp;nbsp;&#39;SK_ID_CURR&#39;,&lt;/div&gt;&lt;div&gt;&amp;nbsp;&#39;NAME_CONTRACT_TYPE&#39;,&lt;/div&gt;&lt;div&gt;&amp;nbsp;&#39;AMT_ANNUITY&#39;,&lt;/div&gt;&lt;div&gt;&amp;nbsp;&#39;AMT_APPLICATION&#39;,&lt;/div&gt;&lt;div&gt;&amp;nbsp;&#39;AMT_CREDIT&#39;,&lt;/div&gt;&lt;div&gt;&amp;nbsp;&#39;AMT_DOWN_PAYMENT&#39;,&lt;/div&gt;&lt;div&gt;&amp;nbsp;&#39;AMT_GOODS_PRICE&#39;,&lt;/div&gt;&lt;div&gt;&amp;nbsp;&#39;WEEKDAY_APPR_PROCESS_START&#39;,&lt;/div&gt;&lt;div&gt;&amp;nbsp;&#39;HOUR_APPR_PROCESS_START&#39;,&lt;/div&gt;&lt;div&gt;&amp;nbsp;&#39;FLAG_LAST_APPL_PER_CONTRACT&#39;,&lt;/div&gt;&lt;div&gt;&amp;nbsp;&#39;NFLAG_LAST_APPL_IN_DAY&#39;,&lt;/div&gt;&lt;div&gt;&amp;nbsp;&#39;RATE_DOWN_PAYMENT&#39;,&lt;/div&gt;&lt;div&gt;&amp;nbsp;&#39;RATE_INTEREST_PRIMARY&#39;,&lt;/div&gt;&lt;div&gt;&amp;nbsp;&#39;RATE_INTEREST_PRIVILEGED&#39;,&lt;/div&gt;&lt;div&gt;&amp;nbsp;&#39;NAME_CASH_LOAN_PURPOSE&#39;,&lt;/div&gt;&lt;div&gt;&amp;nbsp;&#39;NAME_CONTRACT_STATUS&#39;,&lt;/div&gt;&lt;div&gt;&amp;nbsp;&#39;DAYS_DECISION&#39;,&lt;/div&gt;&lt;div&gt;&amp;nbsp;&#39;NAME_PAYMENT_TYPE&#39;,&lt;/div&gt;&lt;div&gt;&amp;nbsp;&#39;CODE_REJECT_REASON&#39;,&lt;/div&gt;&lt;div&gt;&amp;nbsp;&#39;NAME_TYPE_SUITE&#39;,&lt;/div&gt;&lt;div&gt;&amp;nbsp;&#39;NAME_CLIENT_TYPE&#39;,&lt;/div&gt;&lt;div&gt;&amp;nbsp;&#39;NAME_GOODS_CATEGORY&#39;,&lt;/div&gt;&lt;div&gt;&amp;nbsp;&#39;NAME_PORTFOLIO&#39;,&lt;/div&gt;&lt;div&gt;&amp;nbsp;&#39;NAME_PRODUCT_TYPE&#39;,&lt;/div&gt;&lt;div&gt;&amp;nbsp;&#39;CHANNEL_TYPE&#39;,&lt;/div&gt;&lt;div&gt;&amp;nbsp;&#39;SELLERPLACE_AREA&#39;,&lt;/div&gt;&lt;div&gt;&amp;nbsp;&#39;NAME_SELLER_INDUSTRY&#39;,&lt;/div&gt;&lt;div&gt;&amp;nbsp;&#39;CNT_PAYMENT&#39;,&lt;/div&gt;&lt;div&gt;&amp;nbsp;&#39;NAME_YIELD_GROUP&#39;,&lt;/div&gt;&lt;div&gt;&amp;nbsp;&#39;PRODUCT_COMBINATION&#39;,&lt;/div&gt;&lt;div&gt;&amp;nbsp;&#39;DAYS_FIRST_DRAWING&#39;,&lt;/div&gt;&lt;div&gt;&amp;nbsp;&#39;DAYS_FIRST_DUE&#39;,&lt;/div&gt;&lt;div&gt;&amp;nbsp;&#39;DAYS_LAST_DUE_1ST_VERSION&#39;,&lt;/div&gt;&lt;div&gt;&amp;nbsp;&#39;DAYS_LAST_DUE&#39;,&lt;/div&gt;&lt;div&gt;&amp;nbsp;&#39;DAYS_TERMINATION&#39;,&lt;/div&gt;&lt;div&gt;&amp;nbsp;&#39;NFLAG_INSURED_ON_APPROVAL&#39;&lt;/div&gt;" style="text;html=1;align=center;verticalAlign=middle;resizable=0;points=[];autosize=1;strokeColor=none;fillColor=none;" parent="XTTdOz2v0rvTF1GuS7m1-7" vertex="1">
          <mxGeometry x="10" y="30" width="240" height="550" as="geometry" />
        </mxCell>
        <mxCell id="XTTdOz2v0rvTF1GuS7m1-10" value="df_pos_cash_balance" style="swimlane;whiteSpace=wrap;html=1;" parent="1" vertex="1" collapsed="1">
          <mxGeometry x="320" y="-400" width="160" height="30" as="geometry">
            <mxRectangle x="320" y="-400" width="210" height="180" as="alternateBounds" />
          </mxGeometry>
        </mxCell>
        <mxCell id="XTTdOz2v0rvTF1GuS7m1-11" value="&lt;span style=&quot;font-family: Consolas, &amp;quot;Courier New&amp;quot;, monospace; font-size: 14px; text-align: start; white-space-collapse: preserve;&quot;&gt;&#39;SK_ID_PREV&#39;,&lt;br/&gt;&lt;/span&gt;&lt;span style=&quot;font-family: Consolas, &amp;quot;Courier New&amp;quot;, monospace; font-size: 14px; text-align: start; white-space-collapse: preserve;&quot;&gt; &#39;SK_ID_CURR&#39;,&lt;br/&gt;&lt;/span&gt;&lt;span style=&quot;font-family: Consolas, &amp;quot;Courier New&amp;quot;, monospace; font-size: 14px; text-align: start; white-space-collapse: preserve;&quot;&gt; &#39;MONTHS_BALANCE&#39;,&lt;br/&gt;&lt;/span&gt;&lt;span style=&quot;font-family: Consolas, &amp;quot;Courier New&amp;quot;, monospace; font-size: 14px; text-align: start; white-space-collapse: preserve;&quot;&gt; &#39;CNT_INSTALMENT&#39;,&lt;br/&gt;&lt;/span&gt;&lt;span style=&quot;font-family: Consolas, &amp;quot;Courier New&amp;quot;, monospace; font-size: 14px; text-align: start; white-space-collapse: preserve;&quot;&gt; &#39;CNT_INSTALMENT_FUTURE&#39;,&lt;br/&gt;&lt;/span&gt;&lt;span style=&quot;font-family: Consolas, &amp;quot;Courier New&amp;quot;, monospace; font-size: 14px; text-align: start; white-space-collapse: preserve;&quot;&gt; &#39;NAME_CONTRACT_STATUS&#39;,&lt;br/&gt;&lt;/span&gt;&lt;span style=&quot;font-family: Consolas, &amp;quot;Courier New&amp;quot;, monospace; font-size: 14px; text-align: start; white-space-collapse: preserve;&quot;&gt; &#39;SK_DPD&#39;,&lt;br/&gt;&lt;/span&gt;&lt;span style=&quot;font-family: Consolas, &amp;quot;Courier New&amp;quot;, monospace; font-size: 14px; text-align: start; white-space-collapse: preserve;&quot;&gt; &#39;SK_DPD_DEF&#39;&lt;/span&gt;" style="text;html=1;align=center;verticalAlign=middle;resizable=0;points=[];autosize=1;strokeColor=none;fillColor=none;" parent="XTTdOz2v0rvTF1GuS7m1-10" vertex="1">
          <mxGeometry x="-10" y="25" width="220" height="150" as="geometry" />
        </mxCell>
        <mxCell id="XTTdOz2v0rvTF1GuS7m1-12" value="df_inst_payments" style="swimlane;whiteSpace=wrap;html=1;" parent="1" vertex="1" collapsed="1">
          <mxGeometry x="520" y="-400" width="130" height="30" as="geometry">
            <mxRectangle x="520" y="-400" width="220" height="180" as="alternateBounds" />
          </mxGeometry>
        </mxCell>
        <mxCell id="XTTdOz2v0rvTF1GuS7m1-13" value="&lt;span style=&quot;font-family: Consolas, &amp;quot;Courier New&amp;quot;, monospace; font-size: 14px; text-align: start; white-space-collapse: preserve;&quot;&gt;&#39;SK_ID_PREV&#39;,&lt;br/&gt;&lt;/span&gt;&lt;span style=&quot;font-family: Consolas, &amp;quot;Courier New&amp;quot;, monospace; font-size: 14px; text-align: start; white-space-collapse: preserve;&quot;&gt; &#39;SK_ID_CURR&#39;,&lt;br/&gt;&lt;/span&gt;&lt;span style=&quot;font-family: Consolas, &amp;quot;Courier New&amp;quot;, monospace; font-size: 14px; text-align: start; white-space-collapse: preserve;&quot;&gt; &#39;NUM_INSTALMENT_VERSION&#39;,&lt;br/&gt;&lt;/span&gt;&lt;span style=&quot;font-family: Consolas, &amp;quot;Courier New&amp;quot;, monospace; font-size: 14px; text-align: start; white-space-collapse: preserve;&quot;&gt; &#39;NUM_INSTALMENT_NUMBER&#39;,&lt;br/&gt;&lt;/span&gt;&lt;span style=&quot;font-family: Consolas, &amp;quot;Courier New&amp;quot;, monospace; font-size: 14px; text-align: start; white-space-collapse: preserve;&quot;&gt; &#39;DAYS_INSTALMENT&#39;,&lt;br/&gt;&lt;/span&gt;&lt;span style=&quot;font-family: Consolas, &amp;quot;Courier New&amp;quot;, monospace; font-size: 14px; text-align: start; white-space-collapse: preserve;&quot;&gt; &#39;DAYS_ENTRY_PAYMENT&#39;,&lt;br/&gt;&lt;/span&gt;&lt;span style=&quot;font-family: Consolas, &amp;quot;Courier New&amp;quot;, monospace; font-size: 14px; text-align: start; white-space-collapse: preserve;&quot;&gt; &#39;AMT_INSTALMENT&#39;,&lt;br/&gt;&lt;/span&gt;&lt;span style=&quot;font-family: Consolas, &amp;quot;Courier New&amp;quot;, monospace; font-size: 14px; text-align: start; white-space-collapse: preserve;&quot;&gt; &#39;AMT_PAYMENT&#39;&lt;/span&gt;" style="text;html=1;align=center;verticalAlign=middle;resizable=0;points=[];autosize=1;strokeColor=none;fillColor=none;" parent="XTTdOz2v0rvTF1GuS7m1-12" vertex="1">
          <mxGeometry y="28" width="220" height="150" as="geometry" />
        </mxCell>
        <mxCell id="XTTdOz2v0rvTF1GuS7m1-14" value="df_credit_card_balance" style="swimlane;whiteSpace=wrap;html=1;" parent="1" vertex="1">
          <mxGeometry x="700" y="-400" width="260" height="430" as="geometry">
            <mxRectangle x="700" y="-400" width="170" height="30" as="alternateBounds" />
          </mxGeometry>
        </mxCell>
        <mxCell id="XTTdOz2v0rvTF1GuS7m1-15" value="&lt;span style=&quot;font-family: Consolas, &amp;quot;Courier New&amp;quot;, monospace; font-size: 14px; text-align: start; white-space-collapse: preserve;&quot;&gt;&#39;SK_ID_PREV&#39;,&lt;br/&gt;&lt;/span&gt;&lt;span style=&quot;font-family: Consolas, &amp;quot;Courier New&amp;quot;, monospace; font-size: 14px; text-align: start; white-space-collapse: preserve;&quot;&gt; &#39;SK_ID_CURR&#39;,&lt;br/&gt;&lt;/span&gt;&lt;span style=&quot;font-family: Consolas, &amp;quot;Courier New&amp;quot;, monospace; font-size: 14px; text-align: start; white-space-collapse: preserve;&quot;&gt; &#39;MONTHS_BALANCE&#39;,&lt;br/&gt;&lt;/span&gt;&lt;span style=&quot;font-family: Consolas, &amp;quot;Courier New&amp;quot;, monospace; font-size: 14px; text-align: start; white-space-collapse: preserve;&quot;&gt; &#39;AMT_BALANCE&#39;,&lt;br/&gt;&lt;/span&gt;&lt;span style=&quot;font-family: Consolas, &amp;quot;Courier New&amp;quot;, monospace; font-size: 14px; text-align: start; white-space-collapse: preserve;&quot;&gt; &#39;AMT_CREDIT_LIMIT_ACTUAL&#39;,&lt;br/&gt;&lt;/span&gt;&lt;span style=&quot;font-family: Consolas, &amp;quot;Courier New&amp;quot;, monospace; font-size: 14px; text-align: start; white-space-collapse: preserve;&quot;&gt; &#39;AMT_DRAWINGS_ATM_CURRENT&#39;,&lt;br/&gt;&lt;/span&gt;&lt;span style=&quot;font-family: Consolas, &amp;quot;Courier New&amp;quot;, monospace; font-size: 14px; text-align: start; white-space-collapse: preserve;&quot;&gt; &#39;AMT_DRAWINGS_CURRENT&#39;,&lt;br/&gt;&lt;/span&gt;&lt;span style=&quot;font-family: Consolas, &amp;quot;Courier New&amp;quot;, monospace; font-size: 14px; text-align: start; white-space-collapse: preserve;&quot;&gt; &#39;AMT_DRAWINGS_OTHER_CURRENT&#39;,&lt;br/&gt;&lt;/span&gt;&lt;span style=&quot;font-family: Consolas, &amp;quot;Courier New&amp;quot;, monospace; font-size: 14px; text-align: start; white-space-collapse: preserve;&quot;&gt; &#39;AMT_DRAWINGS_POS_CURRENT&#39;,&lt;br/&gt;&lt;/span&gt;&lt;span style=&quot;font-family: Consolas, &amp;quot;Courier New&amp;quot;, monospace; font-size: 14px; text-align: start; white-space-collapse: preserve;&quot;&gt; &#39;AMT_INST_MIN_REGULARITY&#39;,&lt;br/&gt;&lt;/span&gt;&lt;span style=&quot;font-family: Consolas, &amp;quot;Courier New&amp;quot;, monospace; font-size: 14px; text-align: start; white-space-collapse: preserve;&quot;&gt; &#39;AMT_PAYMENT_CURRENT&#39;,&lt;br/&gt;&lt;/span&gt;&lt;span style=&quot;font-family: Consolas, &amp;quot;Courier New&amp;quot;, monospace; font-size: 14px; text-align: start; white-space-collapse: preserve;&quot;&gt; &#39;AMT_PAYMENT_TOTAL_CURRENT&#39;,&lt;br/&gt;&lt;/span&gt;&lt;span style=&quot;font-family: Consolas, &amp;quot;Courier New&amp;quot;, monospace; font-size: 14px; text-align: start; white-space-collapse: preserve;&quot;&gt; &#39;AMT_RECEIVABLE_PRINCIPAL&#39;,&lt;br/&gt;&lt;/span&gt;&lt;span style=&quot;font-family: Consolas, &amp;quot;Courier New&amp;quot;, monospace; font-size: 14px; text-align: start; white-space-collapse: preserve;&quot;&gt; &#39;AMT_RECIVABLE&#39;,&lt;br/&gt;&lt;/span&gt;&lt;span style=&quot;font-family: Consolas, &amp;quot;Courier New&amp;quot;, monospace; font-size: 14px; text-align: start; white-space-collapse: preserve;&quot;&gt; &#39;AMT_TOTAL_RECEIVABLE&#39;,&lt;br/&gt;&lt;/span&gt;&lt;span style=&quot;font-family: Consolas, &amp;quot;Courier New&amp;quot;, monospace; font-size: 14px; text-align: start; white-space-collapse: preserve;&quot;&gt; &#39;CNT_DRAWINGS_ATM_CURRENT&#39;,&lt;br/&gt;&lt;/span&gt;&lt;span style=&quot;font-family: Consolas, &amp;quot;Courier New&amp;quot;, monospace; font-size: 14px; text-align: start; white-space-collapse: preserve;&quot;&gt; &#39;CNT_DRAWINGS_CURRENT&#39;,&lt;br/&gt;&lt;/span&gt;&lt;span style=&quot;font-family: Consolas, &amp;quot;Courier New&amp;quot;, monospace; font-size: 14px; text-align: start; white-space-collapse: preserve;&quot;&gt; &#39;CNT_DRAWINGS_OTHER_CURRENT&#39;,&lt;br/&gt;&lt;/span&gt;&lt;span style=&quot;font-family: Consolas, &amp;quot;Courier New&amp;quot;, monospace; font-size: 14px; text-align: start; white-space-collapse: preserve;&quot;&gt; &#39;CNT_DRAWINGS_POS_CURRENT&#39;,&lt;br/&gt;&lt;/span&gt;&lt;span style=&quot;font-family: Consolas, &amp;quot;Courier New&amp;quot;, monospace; font-size: 14px; text-align: start; white-space-collapse: preserve;&quot;&gt; &#39;CNT_INSTALMENT_MATURE_CUM&#39;,&lt;br/&gt;&lt;/span&gt;&lt;span style=&quot;font-family: Consolas, &amp;quot;Courier New&amp;quot;, monospace; font-size: 14px; text-align: start; white-space-collapse: preserve;&quot;&gt; &#39;NAME_CONTRACT_STATUS&#39;,&lt;br/&gt;&lt;/span&gt;&lt;span style=&quot;font-family: Consolas, &amp;quot;Courier New&amp;quot;, monospace; font-size: 14px; text-align: start; white-space-collapse: preserve;&quot;&gt; &#39;SK_DPD&#39;,&lt;br/&gt;&lt;/span&gt;&lt;span style=&quot;font-family: Consolas, &amp;quot;Courier New&amp;quot;, monospace; font-size: 14px; text-align: start; white-space-collapse: preserve;&quot;&gt; &#39;SK_DPD_DEF&#39;&lt;/span&gt;" style="text;html=1;align=center;verticalAlign=middle;resizable=0;points=[];autosize=1;strokeColor=none;fillColor=none;" parent="XTTdOz2v0rvTF1GuS7m1-14" vertex="1">
          <mxGeometry y="20" width="250" height="400" as="geometry" />
        </mxCell>
        <mxCell id="XTTdOz2v0rvTF1GuS7m1-16" value="" style="endArrow=none;html=1;rounded=0;entryX=0.5;entryY=1;entryDx=0;entryDy=0;exitX=0.5;exitY=0;exitDx=0;exitDy=0;" parent="1" source="XTTdOz2v0rvTF1GuS7m1-3" target="XTTdOz2v0rvTF1GuS7m1-1" edge="1">
          <mxGeometry width="50" height="50" relative="1" as="geometry">
            <mxPoint x="350" y="-960" as="sourcePoint" />
            <mxPoint x="400" y="-1010" as="targetPoint" />
            <Array as="points">
              <mxPoint x="155" y="-1040" />
            </Array>
          </mxGeometry>
        </mxCell>
        <mxCell id="XTTdOz2v0rvTF1GuS7m1-17" value="" style="endArrow=none;html=1;rounded=0;entryX=0.5;entryY=1;entryDx=0;entryDy=0;exitX=0.5;exitY=0;exitDx=0;exitDy=0;" parent="1" source="XTTdOz2v0rvTF1GuS7m1-7" target="XTTdOz2v0rvTF1GuS7m1-1" edge="1">
          <mxGeometry width="50" height="50" relative="1" as="geometry">
            <mxPoint x="400" y="-760" as="sourcePoint" />
            <mxPoint x="450" y="-810" as="targetPoint" />
            <Array as="points">
              <mxPoint x="585" y="-1040" />
            </Array>
          </mxGeometry>
        </mxCell>
        <mxCell id="XTTdOz2v0rvTF1GuS7m1-18" value="" style="endArrow=none;html=1;rounded=0;entryX=0.5;entryY=1;entryDx=0;entryDy=0;exitX=0.5;exitY=0;exitDx=0;exitDy=0;" parent="1" source="XTTdOz2v0rvTF1GuS7m1-5" target="XTTdOz2v0rvTF1GuS7m1-3" edge="1">
          <mxGeometry width="50" height="50" relative="1" as="geometry">
            <mxPoint x="400" y="-760" as="sourcePoint" />
            <mxPoint x="450" y="-810" as="targetPoint" />
          </mxGeometry>
        </mxCell>
        <mxCell id="XTTdOz2v0rvTF1GuS7m1-19" value="" style="endArrow=none;html=1;rounded=0;entryX=0.5;entryY=1;entryDx=0;entryDy=0;exitX=0.5;exitY=0;exitDx=0;exitDy=0;" parent="1" source="XTTdOz2v0rvTF1GuS7m1-12" target="XTTdOz2v0rvTF1GuS7m1-7" edge="1">
          <mxGeometry width="50" height="50" relative="1" as="geometry">
            <mxPoint x="400" y="-760" as="sourcePoint" />
            <mxPoint x="450" y="-810" as="targetPoint" />
            <Array as="points" />
          </mxGeometry>
        </mxCell>
        <mxCell id="XTTdOz2v0rvTF1GuS7m1-21" value="" style="endArrow=none;html=1;rounded=0;exitX=0.5;exitY=0;exitDx=0;exitDy=0;entryX=0.5;entryY=1;entryDx=0;entryDy=0;" parent="1" source="XTTdOz2v0rvTF1GuS7m1-10" target="XTTdOz2v0rvTF1GuS7m1-7" edge="1">
          <mxGeometry width="50" height="50" relative="1" as="geometry">
            <mxPoint x="400" y="-760" as="sourcePoint" />
            <mxPoint x="520" y="-780" as="targetPoint" />
            <Array as="points">
              <mxPoint x="400" y="-920" />
              <mxPoint x="585" y="-920" />
            </Array>
          </mxGeometry>
        </mxCell>
        <mxCell id="XTTdOz2v0rvTF1GuS7m1-22" value="" style="endArrow=none;html=1;rounded=0;exitX=0.5;exitY=0;exitDx=0;exitDy=0;entryX=0.5;entryY=1;entryDx=0;entryDy=0;" parent="1" source="XTTdOz2v0rvTF1GuS7m1-14" target="XTTdOz2v0rvTF1GuS7m1-7" edge="1">
          <mxGeometry width="50" height="50" relative="1" as="geometry">
            <mxPoint x="400" y="-760" as="sourcePoint" />
            <mxPoint x="450" y="-810" as="targetPoint" />
            <Array as="points">
              <mxPoint x="785" y="-920" />
              <mxPoint x="585" y="-920" />
            </Array>
          </mxGeometry>
        </mxCell>
      </root>
    </mxGraphModel>
  </diagram>
</mxfile>
